<svg width="24" height="24" viewBox="0 0 24 24" fill="none" xmlns="http://www.w3.org/2000/svg">
<mask id="mask0_3747_86673" style="mask-type:alpha" maskUnits="userSpaceOnUse" x="0" y="0" width="24" height="24">
<rect width="24" height="24" fill="#D9D9D9"/>
</mask>
<g mask="url(#mask0_3747_86673)">
<g filter="url(#filter0_ddd_3747_86673)">
<path d="M9.1248 21.1004L0.699805 12.7004C0.599805 12.6004 0.528971 12.4921 0.487305 12.3754C0.445638 12.2587 0.424805 12.1337 0.424805 12.0004C0.424805 11.8671 0.445638 11.7421 0.487305 11.6254C0.528971 11.5087 0.599805 11.4004 0.699805 11.3004L9.1248 2.87539C9.35814 2.64206 9.6498 2.52539 9.9998 2.52539C10.3498 2.52539 10.6498 2.65039 10.8998 2.90039C11.1498 3.15039 11.2748 3.44206 11.2748 3.77539C11.2748 4.10872 11.1498 4.40039 10.8998 4.65039L3.5498 12.0004L10.8998 19.3504C11.1331 19.5837 11.2498 19.8712 11.2498 20.2129C11.2498 20.5546 11.1248 20.8504 10.8748 21.1004C10.6248 21.3504 10.3331 21.4754 9.9998 21.4754C9.66647 21.4754 9.3748 21.3504 9.1248 21.1004Z" fill="white"/>
</g>
</g>
<defs>
<filter id="filter0_ddd_3747_86673" x="-9.5752" y="-6.47461" width="30.8501" height="38.9502" filterUnits="userSpaceOnUse" color-interpolation-filters="sRGB">
<feFlood flood-opacity="0" result="BackgroundImageFix"/>
<feColorMatrix in="SourceAlpha" type="matrix" values="0 0 0 0 0 0 0 0 0 0 0 0 0 0 0 0 0 0 127 0" result="hardAlpha"/>
<feOffset dy="1"/>
<feGaussianBlur stdDeviation="5"/>
<feColorMatrix type="matrix" values="0 0 0 0 0 0 0 0 0 0 0 0 0 0 0 0 0 0 0.04 0"/>
<feBlend mode="normal" in2="BackgroundImageFix" result="effect1_dropShadow_3747_86673"/>
<feColorMatrix in="SourceAlpha" type="matrix" values="0 0 0 0 0 0 0 0 0 0 0 0 0 0 0 0 0 0 127 0" result="hardAlpha"/>
<feOffset dy="3"/>
<feGaussianBlur stdDeviation="4"/>
<feColorMatrix type="matrix" values="0 0 0 0 0 0 0 0 0 0 0 0 0 0 0 0 0 0 0.02 0"/>
<feBlend mode="normal" in2="effect1_dropShadow_3747_86673" result="effect2_dropShadow_3747_86673"/>
<feColorMatrix in="SourceAlpha" type="matrix" values="0 0 0 0 0 0 0 0 0 0 0 0 0 0 0 0 0 0 127 0" result="hardAlpha"/>
<feMorphology radius="2" operator="erode" in="SourceAlpha" result="effect3_dropShadow_3747_86673"/>
<feOffset dy="4"/>
<feGaussianBlur stdDeviation="4"/>
<feColorMatrix type="matrix" values="0 0 0 0 0 0 0 0 0 0 0 0 0 0 0 0 0 0 0.02 0"/>
<feBlend mode="normal" in2="effect2_dropShadow_3747_86673" result="effect3_dropShadow_3747_86673"/>
<feBlend mode="normal" in="SourceGraphic" in2="effect3_dropShadow_3747_86673" result="shape"/>
</filter>
</defs>
</svg>
