<svg width="68" height="80" viewBox="0 0 68 80" fill="none" xmlns="http://www.w3.org/2000/svg">
<g filter="url(#filter0_d_196_4237)">
<rect x="10.5" y="14.5898" width="42.5915" height="50.4789" rx="2.02756" fill="#E3EDFC"/>
<mask id="mask0_196_4237" style="mask-type:alpha" maskUnits="userSpaceOnUse" x="19" y="21" width="26" height="27">
<circle cx="31.7957" cy="34.4194" r="12.665" fill="#F4F4F4"/>
<circle cx="31.7957" cy="34.4194" r="12.665" stroke="black"/>
</mask>
<g mask="url(#mask0_196_4237)">
<circle cx="31.7957" cy="34.4194" r="12.665" fill="#F4F4F4"/>
<path d="M28.6297 39.8477C29.7153 39.4859 29.6851 38.1892 29.5343 37.5861L33.6052 37.1338C33.6052 39.3049 34.0575 39.4456 34.9622 39.8477C36.3191 40.4508 39.105 41.9191 39.4854 42.1093C40.39 42.5616 40.8423 43.7678 40.8423 44.3709V48.8941H22.7495V44.3709C22.7495 43.014 23.2018 42.5616 23.6542 42.1093C24.5588 41.2047 27.2727 40.3 28.6297 39.8477Z" fill="#F2BD98"/>
<path fill-rule="evenodd" clip-rule="evenodd" d="M35.0098 39.8476C34.3511 40.9063 32.9568 41.6364 31.3432 41.6364C29.8563 41.6364 28.5555 41.0163 27.8451 40.0905C26.4112 40.5827 24.4065 41.3352 23.6539 42.0878C23.2016 42.5401 22.7493 42.9925 22.7493 44.3494V48.8726H40.8421V44.3494C40.8421 43.7463 40.3898 42.5401 39.4851 42.0878C39.4065 42.0485 39.2251 41.9546 38.9748 41.825C38.0281 41.3348 36.096 40.3345 35.0098 39.8476Z" fill="#B6B7B8"/>
<path fill-rule="evenodd" clip-rule="evenodd" d="M35.3701 33.7489C35.9651 33.0597 36.3193 32.1938 36.3193 31.2535C36.3193 29.0052 34.2942 27.1826 31.7961 27.1826C29.298 27.1826 27.2729 27.1826 27.2729 31.2535C27.2729 31.7682 27.379 32.2605 27.5726 32.7138C27.3794 33.2404 27.2729 33.8166 27.2729 34.4204C27.2729 36.9185 29.0955 38.9436 31.3438 38.9436C33.5921 38.9436 35.4147 36.9185 35.4147 34.4204C35.4147 34.1922 35.3995 33.968 35.3701 33.7489Z" fill="#F2B78E"/>
<path d="M27.8536 31.0519L27.7253 32.1589C27.7253 29.8973 26.8576 29.7154 28.4831 29.2282C30.9106 28.5006 34.7946 29.5923 35.2801 30.6845C35.6685 31.5583 35.1248 32.3331 34.8045 32.6112C33.6129 32.6112 32.322 31.7767 32.322 31.0519C31.5276 31.3638 29.9396 31.4126 29.4541 30.6845C28.9686 31.4126 28.0191 31.1818 27.8536 31.0519Z" fill="url(#paint0_linear_196_4237)"/>
<path d="M28.0433 29.4479L27.2728 30.8007C25.4226 28.0885 27.2723 26.8647 28.5058 26.5418C29.2459 24.6045 31.2812 24.6071 32.2064 24.8505C35.5368 23.4974 36.9862 26.0601 37.2945 27.5106C39.5149 28.2855 39.1448 30.4166 38.6822 31.3853C39.4223 32.5477 38.3739 33.8069 37.7571 34.2913C37.7571 35.7443 36.3193 36.6809 35.4443 36.2286C34.8571 35.925 35.1359 34.937 35.4443 34.2913C33.9641 33.9038 34.2108 32.1925 34.5192 31.3853C33.409 31.3853 32.2064 30.3484 32.2064 29.4479C31.4663 29.8354 29.9868 29.8961 29.5345 28.9915C29.0821 29.8961 28.1975 29.6094 28.0433 29.4479Z" fill="#5B5D5F"/>
<path fill-rule="evenodd" clip-rule="evenodd" d="M31.3436 42.7867C31.3436 42.9116 31.2424 43.0129 31.1175 43.0129C30.9926 43.0129 30.8913 42.9116 30.8913 42.7867C30.8913 42.6618 30.9926 42.5605 31.1175 42.5605C31.2424 42.5605 31.3436 42.6618 31.3436 42.7867ZM31.3437 44.1454C31.3437 44.2703 31.2424 44.3715 31.1175 44.3715C30.9926 44.3715 30.8913 44.2703 30.8913 44.1454C30.8913 44.0205 30.9926 43.9192 31.1175 43.9192C31.2424 43.9192 31.3437 44.0205 31.3437 44.1454ZM31.1175 45.7276C31.2424 45.7276 31.3437 45.6263 31.3437 45.5014C31.3437 45.3765 31.2424 45.2752 31.1175 45.2752C30.9926 45.2752 30.8913 45.3765 30.8913 45.5014C30.8913 45.6263 30.9926 45.7276 31.1175 45.7276Z" fill="white"/>
<circle cx="31.7957" cy="34.4194" r="12.665" stroke="#CCE0FA" stroke-width="0.999537"/>
</g>
<rect x="17.2043" y="51.8169" width="29.1831" height="3.15493" rx="1.57746" fill="#B0D0F9"/>
<rect x="20.7538" y="56.5493" width="22.0845" height="2.3662" rx="1.1831" fill="#B0D0F9"/>
<rect x="9.58904" y="13.6789" width="44.4135" height="52.3008" rx="2.93853" stroke="#F8FBFE" stroke-width="1.82193"/>
</g>
<rect width="13.598" height="12.2856" transform="matrix(1 0 0.000495483 1 46.8998 8.43213)" fill="white"/>
<path fill-rule="evenodd" clip-rule="evenodd" d="M58.0535 9.68715C58.2744 9.6932 58.4821 9.77285 58.6412 9.92588L59.4126 10.6873C59.7726 11.042 59.7265 11.661 59.3102 12.073L52.5435 18.7475C52.2148 19.0719 51.5929 19.0953 51.2382 18.7475L48.1053 15.6586C47.6886 15.2475 47.6443 14.6291 48.0036 14.2751L48.7722 13.5143C49.1337 13.1596 49.7606 13.2028 50.1768 13.6123L51.8889 15.3007L57.2339 10.0272C57.4704 9.79617 57.7706 9.6809 58.0535 9.68715ZM56.4444 2.26701C56.0024 2.25137 55.5368 2.36833 55.0643 2.61874C54.03 3.16727 53.2488 3.0547 52.3389 2.61874C51.861 2.38918 51.39 2.27493 50.9512 2.28786C50.218 2.31121 49.5658 2.69629 49.0781 3.49941C48.46 4.51769 47.7168 4.7733 46.7167 4.87754C45.279 5.02474 44.365 5.82201 44.3265 7.29002C44.2961 8.48364 43.7808 9.07914 42.9657 9.67459C41.7944 10.5288 41.4012 11.6789 42.0938 12.9711C42.6577 14.0192 42.5078 14.7938 42.0951 15.7214C41.5048 17.0551 41.7284 18.2483 42.9703 19.0179C43.976 19.6432 44.2301 20.3898 44.3335 21.402C44.4812 22.8538 45.272 23.7753 46.726 23.8164C47.906 23.8501 48.4993 24.367 49.0888 25.1922C49.963 26.42 51.0507 26.7555 52.3505 26.0762C53.3975 25.5305 54.1593 25.6467 55.076 26.0762C56.4021 26.7002 57.4675 26.42 58.3389 25.1922C58.9275 24.3672 59.5202 23.8501 60.7003 23.8164C62.1547 23.7755 62.9442 22.854 63.0905 21.402C63.193 20.3898 63.4462 19.6432 64.4512 19.0179C65.6911 18.2487 65.9168 17.0551 65.3232 15.7214C64.9095 14.7938 64.7603 14.0192 65.3218 12.9711C66.0147 11.6789 65.6206 10.5288 64.4466 9.67459C63.6293 9.07914 63.1169 8.48369 63.0835 7.29002C63.045 5.82201 62.1286 5.02491 60.6909 4.87754C59.6886 4.7733 58.9485 4.51747 58.3281 3.49941C57.841 2.69649 57.1779 2.2937 56.4444 2.26701Z" fill="#1270EC"/>
<defs>
<filter id="filter0_d_196_4237" x="0.175747" y="7.90959" width="63.2401" height="71.1272" filterUnits="userSpaceOnUse" color-interpolation-filters="sRGB">
<feFlood flood-opacity="0" result="BackgroundImageFix"/>
<feColorMatrix in="SourceAlpha" type="matrix" values="0 0 0 0 0 0 0 0 0 0 0 0 0 0 0 0 0 0 127 0" result="hardAlpha"/>
<feOffset dy="3.64385"/>
<feGaussianBlur stdDeviation="4.25116"/>
<feColorMatrix type="matrix" values="0 0 0 0 0 0 0 0 0 0 0 0 0 0 0 0 0 0 0.12 0"/>
<feBlend mode="normal" in2="BackgroundImageFix" result="effect1_dropShadow_196_4237"/>
<feBlend mode="normal" in="SourceGraphic" in2="effect1_dropShadow_196_4237" result="shape"/>
</filter>
<linearGradient id="paint0_linear_196_4237" x1="35.2801" y1="31.0491" x2="26.5619" y2="30.4032" gradientUnits="userSpaceOnUse">
<stop stop-color="#D9A985"/>
<stop offset="1" stop-color="#F1BB93"/>
</linearGradient>
</defs>
</svg>
