<svg width="20" height="20" viewBox="0 0 20 20" fill="none" xmlns="http://www.w3.org/2000/svg">
<path d="M4.19066 13.8506V14.6468C4.19066 14.9234 4.09776 15.1574 3.91195 15.3488C3.72614 15.5402 3.48814 15.6359 3.19795 15.6359C2.91894 15.6359 2.68387 15.5372 2.49274 15.3399C2.30162 15.1425 2.20605 14.9027 2.20605 14.6205V7.8723L3.98866 2.50363C4.07381 2.24638 4.22302 2.04257 4.43628 1.89221C4.64955 1.74185 4.89316 1.66667 5.16712 1.66667H14.8338C15.1077 1.66667 15.3514 1.74185 15.5646 1.89221C15.7779 2.04257 15.9271 2.24638 16.0122 2.50363L17.8066 7.8723V14.6413C17.8066 14.9216 17.7098 15.1574 17.5161 15.3488C17.3225 15.5402 17.0805 15.6359 16.7901 15.6359C16.5198 15.6359 16.2889 15.5372 16.0974 15.3399C15.906 15.1425 15.8102 14.9045 15.8102 14.6259V13.8506H4.19066ZM4.35916 6.68117H15.6535L14.543 3.32882H5.45789L4.35916 6.68117ZM6.01276 11.2056C6.32762 11.2056 6.59466 11.0963 6.81387 10.8775C7.03306 10.6588 7.14266 10.3931 7.14266 10.0806C7.14266 9.75655 7.03133 9.48108 6.80866 9.25423C6.58598 9.02739 6.32231 8.91396 6.01766 8.91396C5.68574 8.91396 5.40832 9.02691 5.18539 9.2528C4.96246 9.4787 4.85099 9.753 4.85099 10.0757C4.85099 10.3984 4.96198 10.6674 5.18395 10.8827C5.40592 11.098 5.68219 11.2056 6.01276 11.2056ZM14.0158 11.2056C14.3399 11.2056 14.6154 11.0963 14.8422 10.8775C15.0691 10.6588 15.1825 10.3931 15.1825 10.0806C15.1825 9.75655 15.0696 9.48108 14.8437 9.25423C14.6178 9.02739 14.3435 8.91396 14.0207 8.91396C13.698 8.91396 13.429 9.02691 13.2138 9.2528C12.9985 9.4787 12.8908 9.753 12.8908 10.0757C12.8908 10.3984 13.0002 10.6674 13.219 10.8827C13.4377 11.098 13.7033 11.2056 14.0158 11.2056ZM3.85643 12.2002H16.1445V7.93117H3.85643V12.2002Z" fill="#1270EC"/>
<path d="M3.12202 17.806H8.93573H11.0137H16.8773C17.1576 17.806 17.4006 17.7231 17.6064 17.5574C17.813 17.3923 17.9163 17.1974 17.9163 16.9727C17.9163 16.7479 17.813 16.5527 17.6064 16.3869C17.4006 16.2219 17.1576 16.1393 16.8773 16.1393H3.12202C2.84178 16.1393 2.59875 16.2219 2.39293 16.3869C2.18632 16.5527 2.08301 16.7479 2.08301 16.9727C2.08301 17.1974 2.18632 17.3923 2.39293 17.5574C2.59875 17.7231 2.84178 17.806 3.12202 17.806Z" fill="#1270EC"/>
</svg>
