<svg width="19" height="19" viewBox="0 0 19 19" fill="none" xmlns="http://www.w3.org/2000/svg">
<path d="M15.8428 3.98311C15.0061 3.14427 13.8971 2.63229 12.7159 2.53965C11.5348 2.44702 10.3595 2.77983 9.40227 3.47797C8.39803 2.73103 7.14808 2.39233 5.90412 2.53008C4.66015 2.66783 3.51459 3.2718 2.6981 4.22036C1.88162 5.16892 1.45487 6.39162 1.50378 7.64223C1.5527 8.89284 2.07366 10.0785 2.96174 10.9603L7.86317 15.8697C8.27361 16.2736 8.8264 16.5 9.40227 16.5C9.97814 16.5 10.5309 16.2736 10.9414 15.8697L15.8428 10.9603C16.7643 10.0332 17.2816 8.779 17.2816 7.47173C17.2816 6.16447 16.7643 4.91031 15.8428 3.98311ZM14.7299 9.87114L9.82848 14.7726C9.7727 14.8289 9.70632 14.8736 9.63316 14.9041C9.56001 14.9346 9.48153 14.9503 9.40227 14.9503C9.323 14.9503 9.24453 14.9346 9.17137 14.9041C9.09822 14.8736 9.03183 14.8289 8.97606 14.7726L4.07463 9.84746C3.45564 9.21473 3.10903 8.36478 3.10903 7.47962C3.10903 6.59447 3.45564 5.74451 4.07463 5.11178C4.70538 4.48903 5.55608 4.13984 6.44247 4.13984C7.32885 4.13984 8.17955 4.48903 8.81031 5.11178C8.88368 5.18576 8.97098 5.24448 9.06716 5.28455C9.16334 5.32462 9.2665 5.34525 9.3707 5.34525C9.47489 5.34525 9.57805 5.32462 9.67424 5.28455C9.77042 5.24448 9.85771 5.18576 9.93109 5.11178C10.5618 4.48903 11.4125 4.13984 12.2989 4.13984C13.1853 4.13984 14.036 4.48903 14.6668 5.11178C15.2943 5.73622 15.6523 6.58157 15.6641 7.46675C15.6759 8.35192 15.3405 9.20652 14.7299 9.84746V9.87114Z" fill="#23262A"/>
</svg>
