<svg width="25" height="25" viewBox="0 0 25 25" fill="none" xmlns="http://www.w3.org/2000/svg">
<path d="M18.0445 14.3773C17.4835 14.3808 16.9302 14.5084 16.4245 14.7509C15.9187 14.9933 15.473 15.3447 15.1194 15.7796L10.2781 13.5521C10.5056 12.856 10.5056 12.1057 10.2781 11.4096L15.1194 9.18208C15.6894 9.87164 16.4849 10.338 17.3657 10.4987C18.2465 10.6595 19.1558 10.5043 19.9332 10.0606C20.7105 9.61699 21.3059 8.91334 21.6143 8.07392C21.9227 7.23449 21.9242 6.31326 21.6185 5.47283C21.3129 4.6324 20.7198 3.92682 19.9439 3.48063C19.168 3.03444 18.2592 2.87633 17.3779 3.03422C16.4966 3.1921 15.6995 3.65582 15.1273 4.34352C14.5551 5.03123 14.2446 5.8987 14.2505 6.79281C14.2532 7.01863 14.2752 7.2438 14.3164 7.46586L9.30074 9.76877C8.76629 9.24668 8.08943 8.89372 7.35498 8.75412C6.62053 8.61452 5.86116 8.69448 5.17202 8.984C4.48288 9.27351 3.89463 9.75969 3.48098 10.3816C3.06733 11.0035 2.84668 11.7336 2.84668 12.4802C2.84668 13.2268 3.06733 13.9568 3.48098 14.5787C3.89463 15.2007 4.48288 15.6868 5.17202 15.9764C5.86116 16.2659 6.62053 16.3458 7.35498 16.2062C8.08943 16.0666 8.76629 15.7137 9.30074 15.1916L14.3137 17.4959C14.2725 17.7179 14.2504 17.9431 14.2478 18.1689C14.2478 18.9191 14.4705 19.6524 14.8879 20.2762C15.3052 20.8999 15.8984 21.3861 16.5924 21.6731C17.2864 21.9602 18.0501 22.0353 18.7869 21.889C19.5236 21.7426 20.2004 21.3814 20.7316 20.8509C21.2628 20.3205 21.6245 19.6446 21.771 18.9089C21.9176 18.1731 21.8424 17.4105 21.5549 16.7174C21.2674 16.0243 20.7806 15.432 20.156 15.0152C19.5314 14.5984 18.7971 14.376 18.0459 14.376L18.0445 14.3773ZM18.0445 4.89702C18.4203 4.89702 18.7876 5.00829 19.1 5.21675C19.4124 5.42521 19.6559 5.72151 19.7997 6.06817C19.9434 6.41483 19.9811 6.79629 19.9078 7.1643C19.8345 7.53231 19.6535 7.87035 19.3878 8.13568C19.1222 8.401 18.7837 8.58169 18.4151 8.65489C18.0466 8.72809 17.6647 8.69052 17.3175 8.54693C16.9704 8.40334 16.6737 8.16017 16.4649 7.84819C16.2562 7.5362 16.1448 7.1694 16.1448 6.79418C16.1448 6.54504 16.1939 6.29834 16.2894 6.06817C16.3849 5.838 16.5248 5.62886 16.7012 5.45269C16.8776 5.27652 17.087 5.13678 17.3175 5.04144C17.548 4.94609 17.795 4.89702 18.0445 4.89702ZM6.65152 14.3773C6.27584 14.3773 5.9086 14.2661 5.59622 14.0577C5.28384 13.8493 5.04034 13.5531 4.89651 13.2065C4.75268 12.8599 4.71498 12.4785 4.78817 12.1106C4.86136 11.7426 5.04216 11.4045 5.30771 11.1392C5.57326 10.8738 5.91163 10.693 6.28006 10.6196C6.64848 10.5463 7.03041 10.5837 7.37757 10.727C7.72473 10.8704 8.02152 11.1134 8.23044 11.4252C8.43935 11.737 8.551 12.1036 8.55127 12.4788C8.55145 12.7281 8.50244 12.9749 8.40705 13.2052C8.31166 13.4356 8.17176 13.6449 7.99533 13.8212C7.8189 13.9975 7.60942 14.1374 7.37884 14.2328C7.14826 14.3282 6.90111 14.3773 6.65152 14.3773ZM18.0445 20.0661C17.6688 20.0661 17.3015 19.9548 16.9891 19.7463C16.6767 19.5379 16.4332 19.2416 16.2894 18.8949C16.1456 18.5483 16.108 18.1668 16.1813 17.7988C16.2546 17.4308 16.4355 17.0927 16.7012 16.8274C16.9669 16.5621 17.3054 16.3814 17.6739 16.3082C18.0424 16.235 18.4244 16.2726 18.7715 16.4162C19.1187 16.5598 19.4154 16.8029 19.6241 17.1149C19.8329 17.4269 19.9443 17.7937 19.9443 18.1689C19.9443 18.418 19.8951 18.6647 19.7997 18.8949C19.7042 19.1251 19.5643 19.3342 19.3878 19.5104C19.2114 19.6866 19.002 19.8263 18.7715 19.9217C18.541 20.017 18.294 20.0661 18.0445 20.0661Z" fill="black"/>
</svg>
